<svg width="27" height="24" viewBox="0 0 27 24" fill="none" xmlns="http://www.w3.org/2000/svg">
<path fillRule="evenodd" clipRule="evenodd" d="M18.8368 21.3359V22.9158C18.8368 23.4357 18.4149 23.8576 17.895 23.8576C17.3751 23.8576 16.9531 23.4357 16.9531 22.9158V21.346H18.5229C18.6284 21.346 18.7326 21.3422 18.8368 21.3359Z" fill="#621562"/>
<path fillRule="evenodd" clipRule="evenodd" d="M16.9536 21.3453H8.47688C5.87609 21.3453 3.76758 19.2368 3.76758 16.636V12.7656L10.9433 16.7302C12.498 17.5892 14.5023 17.5892 16.057 16.7302L16.9536 16.2354V21.3453ZM18.8373 15.1944L23.2327 12.7656V16.636C23.2327 19.1313 21.2925 21.1733 18.8373 21.3353V15.1944Z" fill="#621562"/>
<path fillRule="evenodd" clipRule="evenodd" d="M16.9535 14.8007L15.449 15.6321C14.2635 16.2876 12.7365 16.2876 11.551 15.6321L1.11014 9.86285C0.399349 9.46978 0 8.78159 0 8.06201C0 7.34117 0.399349 6.65299 1.11014 6.26117L11.551 0.490709C12.7365 -0.16357 14.2635 -0.16357 15.449 0.490709L25.8899 6.26117C26.6007 6.65299 27 7.34117 27 8.06201C27 8.78159 26.6007 9.46978 25.8899 9.86285L18.8372 13.7596V12.8693C18.8372 12.6194 18.738 12.3795 18.5609 12.2037L14.1656 7.80834C13.7989 7.44038 13.2011 7.44038 12.8344 7.80834C12.4665 8.17503 12.4665 8.7728 12.8344 9.1395L16.9535 13.2598V14.8007Z" fill="#621562"/>
</svg>
